<?xml version="1.0" encoding="utf-8"?>
<!-- Generator: Adobe Illustrator 26.0.1, SVG Export Plug-In . SVG Version: 6.00 Build 0)  -->
<svg version="1.1" id="Layer_1" xmlns="http://www.w3.org/2000/svg" xmlns:xlink="http://www.w3.org/1999/xlink" x="0px" y="0px"
	 viewBox="0 0 215 100" style="enable-background:new 0 0 215 100;" xml:space="preserve">
<style type="text/css">
	.st0{fill:#FFFFFF;}
</style>
<g id="Layer_2_00000069366907570620448420000000768232319584950448_">
	<g id="_6">
		<g id="انكليزي">
			<path class="st0" d="M101.8,61.5v13.8h-2v-7.6c0-0.9,0-1.9,0.2-2.8h-0.2c-0.2,0.9-0.6,1.7-1,2.6L96,73.2h-1.8l-2.8-5.8
				c-0.4-0.8-0.7-1.7-1-2.6h-0.1c0.1,0.9,0.2,1.9,0.2,2.8v7.6h-1.8V61.5h2.1l4.6,9.8l4.5-9.8H101.8z"/>
			<path class="st0" d="M110.8,65.2c2.9,0,4.3,1.6,4.3,4.9c0.1,1.6-0.3,3.3-1.2,4.7c-1,0.5-2.1,0.8-3.3,0.8c-2.9,0-4.3-1.6-4.3-4.9
				c0-1.6,0.4-3.3,1.2-4.7C108.5,65.5,109.7,65.3,110.8,65.2z M112.6,73.5c0.4-1,0.5-2.1,0.5-3.1c0-2.2-0.8-3.4-2.4-3.4
				c-0.7,0-1.3,0.1-1.9,0.4c-0.4,1-0.6,2.1-0.5,3.1c0,2.2,0.8,3.4,2.4,3.4C111.3,73.8,112,73.7,112.6,73.5L112.6,73.5z"/>
			<path class="st0" d="M124.4,65.2c2.2,0,3.3,1,3.3,3.1v6.9h-2v-6.5c0-1.1-0.6-1.7-1.9-1.7c-1,0-1.9,0.3-2.6,0.9v7.2h-2V60.5h2v5.8
				C122.2,65.6,123.3,65.3,124.4,65.2z"/>
			<path class="st0" d="M140,68.8v3.9c0,0.8,0.2,1.6,0.5,2.3l-0.1,0.2h-1.9c-0.1-0.2-0.2-0.4-0.2-0.6c-0.8,0.6-1.9,1-2.9,0.9
				c-0.9,0.1-1.8-0.2-2.5-0.8c-0.6-0.5-0.9-1.3-0.9-2.1c0-0.8,0.2-1.5,0.6-2.2c1.8-0.4,3.7-0.6,5.5-0.6v-0.7
				c0.1-0.6-0.1-1.2-0.5-1.6c-0.4-0.4-1-0.5-1.6-0.5c-1.1,0-2.2,0.2-3.3,0.6l-0.1-0.1v-1.7c1.2-0.4,2.5-0.6,3.8-0.6
				c1.3,0,2.2,0.3,2.8,0.8C139.7,66.6,140,67.5,140,68.8z M135.7,74.1c0.8,0,1.6-0.3,2.3-0.7V71c-1.3,0-2.7,0.2-4,0.4
				c-0.1,0.3-0.2,0.7-0.2,1C133.8,73.5,134.5,74,135.7,74.1L135.7,74.1z"/>
			<path class="st0" d="M156.2,65.2c2.1,0,3.2,1.1,3.2,3.2v6.8h-2V69c0-1.2-0.6-1.8-1.8-1.8c-0.9,0-1.8,0.4-2.5,0.9v0.4v6.8h-2V69
				c0-1.2-0.6-1.8-1.8-1.8c-0.9,0-1.8,0.3-2.5,0.9v7.2h-2v-9.7h1.7l0.2,0.8c0.9-0.7,2-1.1,3.1-1.1c1.4,0,2.3,0.5,2.8,1.4
				C153.7,65.8,154.9,65.3,156.2,65.2z"/>
			<path class="st0" d="M171.6,68.8v3.9c0,0.8,0.2,1.6,0.5,2.3l-0.1,0.2h-1.9c-0.1-0.2-0.2-0.4-0.2-0.6c-0.8,0.6-1.9,1-2.9,0.9
				c-0.9,0.1-1.8-0.2-2.5-0.8c-0.6-0.5-0.9-1.3-0.9-2.1c0-0.8,0.2-1.5,0.6-2.2c1.8-0.4,3.7-0.6,5.5-0.6v-0.7
				c0.1-0.6-0.1-1.2-0.5-1.6c-0.4-0.4-1-0.5-1.6-0.5c-1.1,0-2.2,0.2-3.3,0.6l-0.1-0.1v-1.7c1.2-0.4,2.5-0.6,3.7-0.6
				c1.3,0,2.2,0.3,2.8,0.8C171.3,66.6,171.6,67.5,171.6,68.8z M167.4,74.1c0.8,0,1.6-0.3,2.3-0.7V71c-1.3,0-2.7,0.2-4,0.4
				c-0.1,0.3-0.2,0.7-0.2,1C165.5,73.5,166.1,74,167.4,74.1L167.4,74.1z"/>
			<path class="st0" d="M184.4,60.5v12.2c0,0.8,0.2,1.6,0.5,2.4l-0.1,0.2h-2c-0.1-0.3-0.2-0.5-0.2-0.6c-0.8,0.6-1.8,0.9-2.8,0.9
				c-1.1,0.1-2.2-0.4-3-1.2c-0.7-0.8-1-2-1-3.6c0-0.9,0.1-1.8,0.3-2.7c0.2-0.7,0.5-1.4,0.8-2.1c1.7-0.8,3.7-1,5.5-0.4v-5.1
				L184.4,60.5z M177.8,70.6c0,2.2,0.8,3.2,2.5,3.2c0.8,0,1.5-0.2,2.2-0.7v-5.8c-0.7-0.3-1.5-0.4-2.3-0.4c-0.6,0-1.3,0.1-1.8,0.3
				C178,68.4,177.8,69.5,177.8,70.6L177.8,70.6z"/>
			<path class="st0" d="M94.4,87.6l0.3,0.1c1.7,0.6,2.8,1.2,3.5,1.8c0.7,0.7,1,1.6,1,2.5c0,0.9-0.3,1.9-0.7,2.7
				c-0.5,0.4-1.1,0.7-1.8,0.8c-0.8,0.2-1.6,0.3-2.4,0.3c-1.5,0-3-0.2-4.5-0.7v-1.8l0.1-0.1c1.4,0.5,2.9,0.8,4.4,0.8
				c0.9,0,1.8-0.2,2.6-0.5c0.1-0.4,0.2-0.8,0.2-1.3c0-0.5-0.2-1.1-0.7-1.4c-0.8-0.5-1.7-0.9-2.6-1.2l-0.2-0.1
				c-1.5-0.5-2.6-1.1-3.1-1.8c-0.6-0.7-0.9-1.7-0.9-2.6c0-0.9,0.3-1.8,0.7-2.5c1.3-0.9,2.8-1.3,4.4-1.3c1.3,0,2.6,0.2,3.7,0.7v1.8
				L98.4,84c-1.2-0.5-2.5-0.7-3.8-0.7c-0.9,0-1.9,0.2-2.7,0.6c-0.1,0.4-0.2,0.8-0.2,1.1c0,0.5,0.2,1.1,0.6,1.5
				C92.9,87,93.6,87.4,94.4,87.6z"/>
			<path class="st0" d="M108.5,85.5c2.2,0,3.3,1,3.3,3.1v6.9h-2v-6.5c0-1.1-0.6-1.7-1.9-1.7c-1,0-1.9,0.3-2.6,0.9v7.2h-2V80.7h2v5.8
				C106.3,85.9,107.4,85.5,108.5,85.5z"/>
			<path class="st0" d="M120.6,85.5c2.9,0,4.3,1.6,4.3,4.9c0.1,1.6-0.3,3.3-1.2,4.7c-1,0.5-2.1,0.8-3.3,0.8c-2.9,0-4.3-1.6-4.3-4.9
				c0-1.6,0.4-3.3,1.2-4.7C118.3,85.8,119.4,85.5,120.6,85.5z M122.4,93.7c0.4-1,0.6-2.1,0.6-3.1c0-2.2-0.8-3.4-2.4-3.4
				c-0.7,0-1.3,0.1-1.9,0.4c-0.4,1-0.6,2.1-0.6,3.1c0,2.2,0.8,3.4,2.4,3.4C121.1,94.1,121.8,94,122.4,93.7z"/>
			<path class="st0" d="M136.4,89.1V93c0,0.8,0.2,1.6,0.5,2.4l-0.1,0.2h-1.9c-0.1-0.2-0.2-0.4-0.2-0.6c-0.8,0.6-1.9,1-2.9,0.9
				c-0.9,0.1-1.8-0.2-2.5-0.8c-0.6-0.5-0.9-1.3-0.9-2.1c0-0.8,0.2-1.5,0.6-2.2c1.8-0.4,3.7-0.6,5.5-0.6v-0.7
				c0.1-0.6-0.1-1.2-0.5-1.6c-0.4-0.4-1-0.5-1.6-0.5c-1.1,0-2.2,0.2-3.3,0.6l-0.1-0.1v-1.7c1.2-0.4,2.5-0.6,3.8-0.6
				c1.3,0,2.2,0.3,2.8,0.8C136.1,86.9,136.4,87.8,136.4,89.1z M132.2,94.3c0.8,0,1.6-0.3,2.3-0.7v-2.3c-1.3,0-2.7,0.2-4,0.4
				c-0.1,0.3-0.2,0.7-0.2,1C130.3,93.8,130.9,94.3,132.2,94.3L132.2,94.3z"/>
			<path class="st0" d="M142.3,84.3l-1.5-1.5l1.5-1.5l1.5,1.5L142.3,84.3z M143.3,85.8v9.7h-2v-9.7H143.3z"/>
			<path class="st0" d="M153,85.5c1.1-0.1,2.2,0.4,3,1.2c0.7,0.8,1,2,1,3.6c0,0.9-0.1,1.8-0.3,2.7c-0.2,0.7-0.4,1.4-0.8,2.1
				c-1,0.5-2,0.8-3.1,0.8c-0.9,0-1.8-0.2-2.7-0.5l-1.4,0.3l-0.2-0.2V80.7h2v5.5C151.1,85.8,152,85.5,153,85.5z M154.4,93.8
				c0.4-1,0.6-2.2,0.6-3.3c0.1-0.9-0.2-1.7-0.6-2.4c-0.5-0.6-1.2-0.8-1.9-0.8c-0.8,0-1.5,0.2-2.2,0.7v5.8c0.7,0.3,1.5,0.4,2.3,0.4
				C153.2,94.1,153.8,94,154.4,93.8z"/>
			<path class="st0" d="M79.8,25.4c8.7,16.1,13.7,25.7,13.7,25.7S69,81.9,56.5,97.1c-2.4-2.9-6.8-8.6-6.8-8.6S66.5,52.7,79.8,25.4z"
				/>
			<path class="st0" d="M49.6,73.1C40.8,57,35.9,47.4,35.9,47.4s24.4-30.8,36.9-46c2.4,2.9,6.8,8.6,6.8,8.6S62.8,45.8,49.6,73.1z"/>
		</g>
	</g>
</g>
</svg>
